<?xml version="1.0" encoding="UTF-8"?>
<svg id="Layer_1" data-name="Layer 1" xmlns="http://www.w3.org/2000/svg" version="1.1" viewBox="0 0 64 64">
  <defs>
    <style>
      .cls-1 {
        fill: #012249;
      }

      .cls-1, .cls-2 {
        stroke-width: 0px;
      }

      .cls-2 {
        fill: none;
      }
    </style>
  </defs>
  <path class="cls-1" d="M42.5,4.5h-21c-6.6,0-12,5.4-12,12v4.5h45v-4.5c0-6.6-5.4-12-12-12ZM47.2,16.5h-30.4c-.4,0-.8-.4-.8-.8v-1.2c0-3,3.8-5.5,8.5-5.5h14.9c4.7,0,8.5,2.5,8.5,5.5v1.2c0,.4-.4.8-.8.8Z"/>
  <path class="cls-2" d="M48,14.5v2H16v-2c0-3,3.8-5.5,8.5-5.5h14.9c4.7,0,8.5,2.5,8.5,5.5Z"/>
  <rect class="cls-1" x="0" y="19.5" width="64" height="4" rx="1" ry="1"/>
  <path class="cls-1" d="M60.3,19.5H3.7c-.7,0-1.2.5-1.1,1l5.4,38.3c0,.4.6.7,1.1.7h45.9c.6,0,1.1-.3,1.1-.7l5.4-38.3c0-.6-.4-1-1.1-1ZM52.4,55c0,.3-.5.5-1,.5H12.5c-.5,0-.9-.2-1-.5l-4.6-30.6c0-.4.4-.8,1-.8h48.1c.6,0,1,.4,1,.8l-4.6,30.6Z"/>
  <path class="cls-2" d="M57,24.3l-4.6,30.6c0,.3-.5.5-1,.5H12.5c-.5,0-.9-.2-1-.5l-4.6-30.6c0-.4.4-.8,1-.8h48.1c.6,0,1,.4,1,.8Z"/>
  <rect class="cls-1" x="17" y="22.5" width="4" height="34" transform="translate(-4 2.2) rotate(-6)"/>
  <rect class="cls-1" x="43" y="22.6" width="4" height="34" transform="translate(85.6 83.7) rotate(-174)"/>
  <rect class="cls-1" x="30" y="22.5" width="4" height="34"/>
  <rect class="cls-1" x="29.5" y="14" width="4" height="51" transform="translate(-8 71) rotate(-90)"/>
</svg>