<?xml version="1.0" encoding="UTF-8"?>
<svg id="Layer_1" data-name="Layer 1" xmlns="http://www.w3.org/2000/svg" version="1.1" viewBox="0 0 64 64">
  <defs>
    <style>
      .cls-1 {
        fill: #000;
      }

      .cls-1, .cls-2 {
        stroke-width: 0px;
      }

      .cls-3 {
        display: none;
      }

      .cls-2 {
        fill: #d3993d;
      }
    </style>
  </defs>
  <g class="cls-3">
    <rect class="cls-2" x="0" width="64" height="64"/>
  </g>
  <g>
    <path class="cls-1" d="M63.8,4.4l-.9-1.8c-.2-.4-.7-.5-1-.3l-4.5,2.7h0s-.3.2-.3.2h0c0,.1-.1.2-.1.3l-.7,3.8-.2,1L1.5,17.5c-.8.1-1.3.8-1.3,1.5v25.2c0,.8.7,1.5,1.5,1.5h50.3c.8,0,1.4-.5,1.5-1.3l5.3-32.8.6-3.1c0-.4.3-.8.7-1l3.4-2.1c.3-.2.4-.6.2-.9ZM51.7,19.9l-1.2,18.8v.7s0,0,0,0c-.2,1.3-1.4,2.2-2.7,2.2H9.5c-3,0-5.4-2.4-5.4-5.4v-13.4c0-.9.4-1.8,1.3-2.3.1,0,.2-.1.4-.2h1.3c0-.1,40.7-3.9,40.7-3.9h1.2c1-.2,2,.3,2.5,1.2,0,0,0,0,0,0,.2.4.2.8.2,1.2v1Z"/>
    <circle class="cls-1" cx="9.6" cy="54.2" r="7.5"/>
    <circle class="cls-1" cx="46.6" cy="54.2" r="7.5"/>
  </g>
  <rect class="cls-1" x="3" y="17" width="50" height="27" transform="translate(-1 1) rotate(-2)"/>
  <rect class="cls-1" x="55" y="5" width="2" height="8" rx="1" ry="1" transform="translate(.5 -2.9) rotate(2.9)"/>
  <rect class="cls-1" x="55" y="4" width="7" height="2" rx="1" ry="1" transform="translate(2.7 23.2) rotate(-23)"/>
</svg>